<svg data-v-0dd9719b="" version="1.0" xmlns="http://www.w3.org/2000/svg" xmlns:xlink="http://www.w3.org/1999/xlink" width="100%" height="100%" viewBox="0 0 340.000000 250.000000" preserveAspectRatio="xMidYMid meet" color-interpolation-filters="sRGB" style="margin: auto;"> <rect data-v-0dd9719b="" x="0" y="0" width="100%" height="100%" fill="#fff" fill-opacity="1" class="background"></rect> <rect data-v-0dd9719b="" x="0" y="0" width="100%" height="100%" fill="url(#watermark)" fill-opacity="1" class="watermarklayer"></rect> <g data-v-0dd9719b="" fill="#333" class="icon-text-wrapper icon-svg-group iconsvg" transform="translate(81.89999377727509,71.43499755859375)"><g class="iconsvg-imagesvg" transform="translate(58.100006103515625,0)"><g><rect fill="#333" fill-opacity="0" stroke-width="2" x="0" y="0" width="60" height="60" class="image-rect"></rect> <svg x="0" y="0" width="60" height="60" filtersec="colorsb2536086346" class="image-svg-svg primary" style="overflow: visible;"><svg xmlns="http://www.w3.org/2000/svg" viewBox="0 0 100 100"><path fill="#7dde00" d="M50 18.36L31.64 0H9.13L50 40.87h.01L90.88 0H68.36L50 18.36z"></path><path fill="#29aae2" d="M0 9.13v22.52L18.35 50 0 68.36v22.52l40.87-40.87V50L0 9.13z"></path><path fill="#00c465" d="M59.13 50L100 90.88V68.36L81.64 50 100 31.64V9.12L59.13 50z"></path><path fill="#4c66fc" d="M50 59.13h-.01L9.12 100h22.52L50 81.64 68.35 100h22.52L50 59.13z"></path></svg></svg> <!----></g></g> <g transform="translate(0,67)"><g data-gra="path-name" fill-rule="" class="tp-name iconsvg-namesvg"><g transform="scale(1)"><g><path d="M21.46-39.89L21.46-39.89Q27.4-39.89 31.92-37.87L31.92-37.87Q37.21-35.43 39.35-29.72L39.35-29.72Q41.02-25.26 41.02-19.26L41.02-19.26Q41.02-13.2 39-8.74L39-8.74Q36.44-3.45 31.15-1.31L31.15-1.31Q27.23 0.24 22.11 0.24L22.11 0.24Q15.4 0.24 10.46-2.26L10.46-2.26Q6.3-4.34 4.1-8.8 1.9-13.26 1.9-19.62L1.9-19.62Q1.9-30.97 7.55-35.79L7.55-35.79Q12.31-39.83 21.46-39.89ZM21.52-33.23L21.52-33.23Q15.69-33.23 13.2-29.43L13.2-29.43Q11.18-26.45 11.18-19.85L11.18-19.85Q11.18-12.9 13.67-9.63L13.67-9.63Q16.17-6.42 21.58-6.42L21.58-6.42Q26.81-6.42 29.28-9.69 31.74-12.96 31.74-19.8L31.74-19.8Q31.74-26.04 29.72-29.31L29.72-29.31Q27.4-33.17 21.52-33.23ZM66.7 0L46.78 0 46.78-7.07 64.91-7.07Q69.25-7.07 70.68-7.91L70.68-7.91Q72.76-9.15 72.76-11.65L72.76-11.65Q72.76-14.56 70.32-15.87L70.32-15.87Q68.96-16.64 65.92-16.64L65.92-16.64 58.55-16.64Q51.84-16.64 48.86-19.08L48.86-19.08Q47.02-20.63 45.98-22.95 44.94-25.26 44.94-27.94L44.94-27.94Q44.94-32.1 47.38-35.55L47.38-35.55Q49.76-38.88 54.99-39.47L54.99-39.47Q56.77-39.65 60.28-39.65L60.28-39.65 79.95-39.65 79.95-32.58 62.18-32.58Q58.2-32.52 56.89-32.22L56.89-32.22Q54.21-31.57 54.21-28.18L54.21-28.18Q54.21-25.32 56.47-24.37L56.47-24.37Q57.96-23.66 61.47-23.66L61.47-23.66 67.83-23.66Q72.7-23.66 75.08-22.83L75.08-22.83Q79.3-21.4 80.9-17.83L80.9-17.83Q82.15-14.98 82.15-11.71L82.15-11.71Q82.15-8.08 80.49-5.23L80.49-5.23Q78.17-1.19 73.53-0.36L73.53-0.36Q71.27 0 66.7 0L66.7 0ZM88.1-39.65L100.4-39.65 110.27-8.68 120.67-39.65 132.98-39.65 132.98 0 124.95 0 124.95-29.72 114.61 0 105.93 0 96.12-29.72 96.12 0 88.1 0 88.1-39.65ZM158.54-39.89L158.54-39.89Q164.48-39.89 169-37.87L169-37.87Q174.29-35.43 176.43-29.72L176.43-29.72Q178.1-25.26 178.1-19.26L178.1-19.26Q178.1-13.2 176.08-8.74L176.08-8.74Q173.52-3.45 168.23-1.31L168.23-1.31Q164.31 0.24 159.19 0.24L159.19 0.24Q152.48 0.24 147.54-2.26L147.54-2.26Q143.38-4.34 141.18-8.8 138.98-13.26 138.98-19.62L138.98-19.62Q138.98-30.97 144.63-35.79L144.63-35.79Q149.39-39.83 158.54-39.89ZM158.6-33.23L158.6-33.23Q152.77-33.23 150.28-29.43L150.28-29.43Q148.26-26.45 148.26-19.85L148.26-19.85Q148.26-12.9 150.75-9.63L150.75-9.63Q153.25-6.42 158.66-6.42L158.66-6.42Q163.89-6.42 166.36-9.69 168.82-12.96 168.82-19.8L168.82-19.8Q168.82-26.04 166.8-29.31L166.8-29.31Q164.48-33.17 158.6-33.23Z" transform="translate(-1.9000000953674316, 39.88999938964844)"></path></g> <!----> <!----> <!----> <!----> <!----> <!----> <!----></g></g> <!----></g></g><defs v-gra="od"></defs></svg>